<?xml version="1.0" encoding="UTF-8"?>
<svg width="49px" height="49px" viewBox="0 0 49 49" version="1.1" xmlns="http://www.w3.org/2000/svg" xmlns:xlink="http://www.w3.org/1999/xlink">
    <!-- Generator: Sketch 49.3 (51167) - http://www.bohemiancoding.com/sketch -->
    <title>exchange</title>
    <desc>Created with Sketch.</desc>
    <defs></defs>
    <g id="Page-1" stroke="none" stroke-width="1" fill="none" fill-rule="evenodd">
        <g id="exchange" fill="#006DF0" fill-rule="nonzero">
            <path d="M37.2826087,0 C30.8221277,0 25.5652174,5.25691027 25.5652174,11.7173913 C25.5652174,18.1778723 30.8221277,23.4347826 37.2826087,23.4347826 C43.7430897,23.4347826 49,18.1778723 49,11.7173913 C49,5.25691027 43.7430897,0 37.2826087,0 Z M37.2826087,21.3043478 C31.9960513,21.3043478 27.6956522,17.0029084 27.6956522,11.7173913 C27.6956522,6.43187422 31.9960513,2.13043478 37.2826087,2.13043478 C42.5691661,2.13043478 46.8695652,6.43187422 46.8695652,11.7173913 C46.8695652,17.0029084 42.5691661,21.3043478 37.2826087,21.3043478 Z" id="Shape"></path>
            <path d="M11.7173913,49 C18.1778723,49 23.4347826,43.7430897 23.4347826,37.2826087 C23.4347826,30.8221277 18.1778723,25.5652174 11.7173913,25.5652174 C5.25691027,25.5652174 0,30.8221277 0,37.2826087 C0,43.7430897 5.25691027,49 11.7173913,49 Z M11.7173913,27.6956522 C17.0029084,27.6956522 21.3043478,31.9970916 21.3043478,37.2826087 C21.3043478,42.5681258 17.0029084,46.8695652 11.7173913,46.8695652 C6.43187422,46.8695652 2.13043478,42.5681258 2.13043478,37.2826087 C2.13043478,31.9970916 6.43187422,27.6956522 11.7173913,27.6956522 Z" id="Shape"></path>
            <path d="M1.06521739,23.4347826 C1.65295934,23.4347826 2.13043478,22.9573072 2.13043478,22.3695652 L2.13043478,8.52173913 L17.0434783,8.52173913 L11.0781569,12.9958602 C10.607443,13.3479853 10.5127802,14.0163468 10.8654254,14.4870605 C11.0739959,14.7658479 11.3943933,14.9130435 11.7184315,14.9130435 C11.9400051,14.9130435 12.1646994,14.8438668 12.3566257,14.699792 L20.8783649,8.30848767 C20.8965693,8.29496433 20.9028108,8.2725989 20.9199749,8.2585556 C21.0016346,8.18937879 21.0656101,8.10615868 21.1233441,8.01461656 C21.14779,7.97612733 21.1784775,7.94439956 21.1977221,7.90382982 C21.2627378,7.76651664 21.3043478,7.61724054 21.3043478,7.45652174 C21.3043478,7.29580294 21.2627378,7.14652683 21.1987623,7.01025397 C21.1795177,6.96864392 21.14779,6.93795647 21.1243844,6.8994671 C21.0666504,6.80792498 21.0026749,6.72574519 20.9210152,6.65552819 C20.9038511,6.64044458 20.8965693,6.61807914 20.8794052,6.60559613 L12.357666,0.21429178 C11.8869523,-0.139393682 11.2191108,-0.0426502391 10.8664657,0.427023149 C10.5127802,0.897736989 10.6084834,1.56609845 11.0791971,1.91822351 L17.0434783,6.39130435 L1.06521739,6.39130435 C0.47747544,6.39130435 0,6.86877979 0,7.45652174 L0,22.3695652 C0,22.9573072 0.47747544,23.4347826 1.06521739,23.4347826 Z" id="Shape"></path>
            <path d="M47.9347826,25.5652174 C47.3454802,25.5652174 46.8695652,26.0426928 46.8695652,26.6304348 L46.8695652,40.4782609 L31.9565217,40.4782609 L37.9208029,36.0041398 C38.3915166,35.6520147 38.4872198,34.9836532 38.1335343,34.5129395 C37.7798488,34.0422256 37.1130477,33.9454823 36.6433743,34.300208 L28.1216351,40.6915123 C28.1044709,40.7039953 28.0971892,40.7263608 28.0800251,40.7404042 C27.9973251,40.8106212 27.9323094,40.8948815 27.8735352,40.9874639 C27.8501295,41.024913 27.8194422,41.0556004 27.8012377,41.0951299 C27.7372622,41.2334834 27.6956522,41.3827595 27.6956522,41.5434783 C27.6956522,41.7041971 27.7372622,41.8534732 27.8012377,41.9907863 C27.8204823,42.0313561 27.8501295,42.0610033 27.8735352,42.0984524 C27.9323094,42.1910347 27.9973251,42.2752951 28.0800251,42.3455121 C28.0971892,42.3595554 28.1034307,42.3819209 28.1216351,42.3944039 L36.6433743,48.7857082 C36.8353006,48.929783 37.0589546,48.9989598 37.2815685,48.9989598 C37.606647,48.9989598 37.9249639,48.8517642 38.1345746,48.5729769 C38.4882601,48.102263 38.392557,47.4339015 37.9218431,47.0817765 L31.9565217,42.6086957 L47.9347826,42.6086957 C48.524085,42.6086957 49,42.1312202 49,41.5434783 L49,26.6304348 C49,26.0426928 48.524085,25.5652174 47.9347826,25.5652174 Z" id="Shape"></path>
            <path d="M11.7173913,42.6086957 C14.654021,42.6086957 17.0434783,40.2192383 17.0434783,37.2826087 C17.0434783,34.345979 14.654021,31.9565217 11.7173913,31.9565217 C8.78076165,31.9565217 6.39130435,34.345979 6.39130435,37.2826087 C6.39130435,40.2192383 8.78076165,42.6086957 11.7173913,42.6086957 Z M11.7173913,34.0869565 C13.479057,34.0869565 14.9130435,35.520943 14.9130435,37.2826087 C14.9130435,39.0442744 13.479057,40.4782609 11.7173913,40.4782609 C9.9557256,40.4782609 8.52173913,39.0442744 8.52173913,37.2826087 C8.52173913,35.520943 9.9557256,34.0869565 11.7173913,34.0869565 Z" id="Shape"></path>
            <path d="M37.2826087,6.39130435 C34.345979,6.39130435 31.9565217,8.78076165 31.9565217,11.7173913 C31.9565217,14.654021 34.345979,17.0434783 37.2826087,17.0434783 C40.2192383,17.0434783 42.6086957,14.654021 42.6086957,11.7173913 C42.6086957,8.78076165 40.2192383,6.39130435 37.2826087,6.39130435 Z M37.2826087,14.9130435 C35.520943,14.9130435 34.0869565,13.479057 34.0869565,11.7173913 C34.0869565,9.9557256 35.520943,8.52173913 37.2826087,8.52173913 C39.0442744,8.52173913 40.4782609,9.9557256 40.4782609,11.7173913 C40.4782609,13.479057 39.0442744,14.9130435 37.2826087,14.9130435 Z" id="Shape"></path>
        </g>
    </g>
</svg>