<?xml version="1.0" encoding="UTF-8"?>
<svg width="49px" height="49px" viewBox="0 0 49 49" version="1.1" xmlns="http://www.w3.org/2000/svg" xmlns:xlink="http://www.w3.org/1999/xlink">
    <!-- Generator: Sketch 49.3 (51167) - http://www.bohemiancoding.com/sketch -->
    <title>balance</title>
    <desc>Created with Sketch.</desc>
    <defs></defs>
    <g id="Page-1" stroke="none" stroke-width="1" fill="none" fill-rule="evenodd">
        <g id="balance" fill="#006DF0" fill-rule="nonzero">
            <path d="M49,9.58695652 C49,8.99921457 48.524085,8.52173913 47.9347826,8.52173913 L29.826087,8.52173913 L29.826087,5.32608696 C29.826087,2.3894573 27.4366297,0 24.5,0 C21.5633703,0 19.173913,2.3894573 19.173913,5.32608696 L19.173913,8.52173913 L1.06521739,8.52173913 C0.47591503,8.52173913 0,8.99921457 0,9.58695652 C0,10.1746985 0.47591503,10.6521739 1.06521739,10.6521739 L3.96283758,10.6521739 L0.0317276332,26.3724524 C0.0213251196,26.4151027 0.0306874484,26.4577531 0.025486125,26.5004034 C0.0202849348,26.5451342 8.50014503e-17,26.5846637 8.50014503e-17,26.6304348 L8.50014503e-17,30.8913043 C8.50014503e-17,33.827934 2.3894573,36.2173913 5.32608696,36.2173913 L9.58695652,36.2173913 C12.5235862,36.2173913 14.9130435,33.827934 14.9130435,30.8913043 L14.9130435,26.6304348 C14.9130435,26.5846637 14.8927585,26.5451342 14.886517,26.5004034 C14.8813158,26.4577531 14.8917184,26.416143 14.8802755,26.3724524 L10.9502059,10.6521739 L19.173913,10.6521739 L19.173913,46.8695652 L9.58695652,46.8695652 C8.99765416,46.8695652 8.52173913,47.3454802 8.52173913,47.9347826 C8.52173913,48.524085 8.99765416,49 9.58695652,49 L39.4130435,49 C40.0023458,49 40.4782609,48.524085 40.4782609,47.9347826 C40.4782609,47.3454802 40.0023458,46.8695652 39.4130435,46.8695652 L29.826087,46.8695652 L29.826087,10.6521739 L38.0497941,10.6521739 L34.1186842,26.3724524 C34.1082816,26.4151027 34.117644,26.4577531 34.1124426,26.5004034 C34.1072415,26.5451342 34.0869565,26.5846637 34.0869565,26.6304348 L34.0869565,30.8913043 C34.0869565,33.827934 36.4764138,36.2173913 39.4130435,36.2173913 L43.673913,36.2173913 C46.6105427,36.2173913 49,33.827934 49,30.8913043 L49,26.6304348 C49,26.5846637 48.9797151,26.5451342 48.9734736,26.5004034 C48.9682724,26.4577531 48.9786749,26.416143 48.967232,26.3724524 L45.0371624,10.6521739 L47.9347826,10.6521739 C48.524085,10.6521739 49,10.1746985 49,9.58695652 Z M12.7826087,30.8913043 C12.7826087,32.6529701 11.3486222,34.0869565 9.58695652,34.0869565 L5.32608696,34.0869565 C3.56442125,34.0869565 2.13043478,32.6529701 2.13043478,30.8913043 L2.13043478,27.6956522 L12.7826087,27.6956522 L12.7826087,30.8913043 Z M12.4845767,25.5652174 L2.42846676,25.5652174 L6.15672763,10.6521739 L8.75527553,10.6521739 L12.4845767,25.5652174 Z M21.3043478,5.32608696 C21.3043478,3.56442125 22.7383343,2.13043478 24.5,2.13043478 C26.2616657,2.13043478 27.6956522,3.56442125 27.6956522,5.32608696 L27.6956522,38.3478261 L21.3043478,38.3478261 L21.3043478,5.32608696 Z M21.3043478,46.8695652 L21.3043478,40.4782609 L27.6956522,40.4782609 L27.6956522,46.8695652 L21.3043478,46.8695652 Z M46.8695652,30.8913043 C46.8695652,32.6529701 45.4355788,34.0869565 43.673913,34.0869565 L39.4130435,34.0869565 C37.6513778,34.0869565 36.2173913,32.6529701 36.2173913,30.8913043 L36.2173913,27.6956522 L46.8695652,27.6956522 L46.8695652,30.8913043 Z M46.5715332,25.5652174 L36.5154233,25.5652174 L40.2436842,10.6521739 L42.842232,10.6521739 L46.5715332,25.5652174 Z" id="Shape"></path>
        </g>
    </g>
</svg>