<?xml version="1.0" encoding="UTF-8"?>
<svg width="49px" height="49px" viewBox="0 0 49 49" version="1.1" xmlns="http://www.w3.org/2000/svg" xmlns:xlink="http://www.w3.org/1999/xlink">
    <!-- Generator: Sketch 49.3 (51167) - http://www.bohemiancoding.com/sketch -->
    <title>global</title>
    <desc>Created with Sketch.</desc>
    <defs></defs>
    <g id="Page-1" stroke="none" stroke-width="1" fill="none" fill-rule="evenodd">
        <g id="global" fill="#006DF0" fill-rule="nonzero">
            <path d="M46.3125106,13.3641093 C42.249809,5.43999451 34.0006156,0 24.5,0 C14.9962636,0 6.74602999,5.44207502 2.6843686,13.3719111 C2.66824467,13.4036387 2.64900005,13.4322456 2.63651704,13.4655337 C0.954430655,16.7844557 -2.84217094e-14,20.5319612 -2.84217094e-14,24.5 C-2.84217094e-14,28.4690791 0.954430655,32.2165846 2.63651704,35.5344663 C2.64900005,35.5677544 2.66824467,35.5963613 2.6843686,35.6280889 C6.74498981,43.557925 14.9962636,49 24.5,49 C34.0006156,49 42.249809,43.5610458 46.3125106,35.6358907 C46.330715,35.6005223 46.3520401,35.5687945 46.3655635,35.5313455 C48.0466097,32.2134639 49,28.4669986 49,24.5 C49,20.5330014 48.0466097,16.7865361 46.3655635,13.4686545 C46.3509999,13.4312055 46.330715,13.3994777 46.3125106,13.3641093 Z M44.6803563,34.0869565 L35.3170537,34.0869565 C35.8371794,31.4624023 36.1461341,28.5923488 36.2043882,25.5652174 L46.8154721,25.5652174 C46.6713974,28.6043118 45.9234566,31.481647 44.6803563,34.0869565 Z M24.5,46.8695652 C21.1306258,46.8695652 18.1086957,42.5499215 16.3948815,36.2173913 L32.6051185,36.2173913 C30.8913043,42.5499215 27.8693742,46.8695652 24.5,46.8695652 Z M15.8856786,34.0869565 C15.3348654,31.4676036 15.0014648,28.5871475 14.9374894,25.5652174 L34.0635509,25.5652174 C33.9985352,28.5871475 33.6651346,31.4676036 33.1153618,34.0869565 L15.8856786,34.0869565 Z M2.18452785,25.5652174 L12.7956118,25.5652174 C12.8549062,28.5923488 13.1628206,31.4624023 13.6829463,34.0869565 L4.31964373,34.0869565 C3.07654343,31.481647 2.32860263,28.6043118 2.18452785,25.5652174 Z M4.31964373,14.9130435 L13.6829463,14.9130435 C13.1628206,17.5375977 12.8538659,20.4076512 12.7956118,23.4347826 L2.18452785,23.4347826 C2.32860263,20.3956882 3.07654343,17.518353 4.31964373,14.9130435 Z M24.5,2.13043478 C27.8693742,2.13043478 30.8913043,6.45007852 32.6051185,12.7826087 L16.3948815,12.7826087 C18.1086957,6.45007852 21.1306258,2.13043478 24.5,2.13043478 Z M33.1143214,14.9130435 C33.6651346,17.5313561 33.9985352,20.4128525 34.0625106,23.4347826 L14.9364491,23.4347826 C15.0014648,20.4128525 15.3348654,17.5313561 15.8846382,14.9130435 L33.1143214,14.9130435 Z M36.2043882,23.4347826 C36.1450938,20.4076512 35.8371794,17.5375977 35.3170537,14.9130435 L44.6803563,14.9130435 C45.9234566,17.518353 46.6713974,20.3956882 46.8154721,23.4347826 L36.2043882,23.4347826 Z M43.5183954,12.7826087 L34.8348973,12.7826087 C33.7566767,8.55606736 32.1037173,5.10867449 30.0783479,2.86329183 C35.7357549,4.32380474 40.5209111,7.93503736 43.5183954,12.7826087 Z M18.9206118,2.86329183 C16.8962827,5.10867449 15.2433233,8.55606736 14.1640625,12.7826087 L5.48056425,12.7826087 C8.47908889,7.93503736 13.2642451,4.32380474 18.9206118,2.86329183 Z M5.48160457,36.2173913 L14.1640625,36.2173913 C15.242283,40.4439326 16.8952425,43.8913255 18.9206118,46.1367082 C13.2642451,44.6761953 8.47908889,41.0639225 5.48160457,36.2173913 Z M30.0793882,46.1367082 C32.1037173,43.8913255 33.7566767,40.4439326 34.8359375,36.2173913 L43.5183954,36.2173913 C40.5209111,41.0639225 35.7357549,44.6761953 30.0793882,46.1367082 Z" id="Shape"></path>
        </g>
    </g>
</svg>