<?xml version="1.0" encoding="UTF-8"?>
<svg width="49px" height="49px" viewBox="0 0 49 49" version="1.1" xmlns="http://www.w3.org/2000/svg" xmlns:xlink="http://www.w3.org/1999/xlink">
    <!-- Generator: Sketch 49.3 (51167) - http://www.bohemiancoding.com/sketch -->
    <title>cryptocurrency</title>
    <desc>Created with Sketch.</desc>
    <defs></defs>
    <g id="Page-1" stroke="none" stroke-width="1" fill="none" fill-rule="evenodd">
        <g id="cryptocurrency" fill="#006DF0" fill-rule="nonzero">
            <path d="M47.9347826,0 L1.06521739,0 C0.47591503,0 0,0.47591503 0,1.06521739 L0,39.4130435 C0,40.0023458 0.47591503,40.4782609 1.06521739,40.4782609 L8.52173913,40.4782609 L8.52173913,47.9347826 C8.52173913,48.3649266 8.78076165,48.7550208 9.17917799,48.9188604 C9.31128998,48.9745139 9.44964334,49 9.58695652,49 C9.86366338,49 10.1367293,48.8912938 10.3400985,48.6879246 L18.5497622,40.4782609 L47.9347826,40.4782609 C48.524085,40.4782609 49,40.0023458 49,39.4130435 L49,1.06521739 C49,0.47591503 48.524085,0 47.9347826,0 Z M46.8695652,38.3478261 L18.1086957,38.3478261 C17.8252272,38.3478261 17.5547618,38.4596531 17.3555537,38.6599015 L10.6521739,45.3632812 L10.6521739,39.4130435 C10.6521739,38.8237411 10.1762589,38.3478261 9.58695652,38.3478261 L2.13043478,38.3478261 L2.13043478,2.13043478 L46.8695652,2.13043478 L46.8695652,38.3478261 Z" id="Shape"></path>
            <path d="M20.2391304,31.9575619 C21.7433339,31.9575619 23.1768003,31.6626508 24.5,31.1435653 C25.8231997,31.6626508 27.2566661,31.9575619 28.7608696,31.9575619 C35.2213506,31.9575619 40.4782609,26.7006518 40.4782609,20.2401706 C40.4782609,13.7796896 35.2213506,8.52277932 28.7608696,8.52277932 C27.2566661,8.52277932 25.8231997,8.81769061 24.5,9.3367761 C23.1768003,8.81769061 21.7433339,8.52277932 20.2391304,8.52277932 C13.7786494,8.52277932 8.52173913,13.7796896 8.52173913,20.2401706 C8.52173913,26.7006518 13.7786494,31.9575619 20.2391304,31.9575619 Z M28.7608696,10.6532141 C34.047427,10.6532141 38.3478261,14.9536133 38.3478261,20.2401706 C38.3478261,25.5267282 34.047427,29.8271271 28.7608696,29.8271271 C28.2110968,29.8271271 27.6753672,29.7709537 27.1500404,29.6809719 C30.0580631,27.5463761 31.9565217,24.1156271 31.9565217,20.2401706 C31.9565217,16.3647143 30.0580631,12.9339653 27.1500404,10.7993695 C27.6753672,10.7099079 28.2110968,10.6532141 28.7608696,10.6532141 Z M19.173913,20.2401706 C19.173913,16.4853834 21.3490787,13.2371985 24.5,11.6653787 C27.6509213,13.2371985 29.826087,16.4864236 29.826087,20.2401706 C29.826087,23.9939177 27.6509213,27.2431428 24.5,28.8149626 C21.3490787,27.2431428 19.173913,23.9949579 19.173913,20.2401706 Z M20.2391304,10.6532141 C20.7889032,10.6532141 21.3246328,10.7099079 21.8499596,10.7993695 C18.9419369,12.9339653 17.0434783,16.3647143 17.0434783,20.2401706 C17.0434783,24.1156271 18.9419369,27.5463761 21.8499596,29.6809719 C21.3246328,29.7709537 20.7889032,29.8271271 20.2391304,29.8271271 C14.952573,29.8271271 10.6521739,25.5267282 10.6521739,20.2401706 C10.6521739,14.9536133 14.952573,10.6532141 20.2391304,10.6532141 Z" id="Shape"></path>
        </g>
    </g>
</svg>