<?xml version="1.0" encoding="UTF-8"?>
<svg width="49px" height="49px" viewBox="0 0 49 49" version="1.1" xmlns="http://www.w3.org/2000/svg" xmlns:xlink="http://www.w3.org/1999/xlink">
    <!-- Generator: Sketch 49.3 (51167) - http://www.bohemiancoding.com/sketch -->
    <title>robot</title>
    <desc>Created with Sketch.</desc>
    <defs></defs>
    <g id="Page-1" stroke="none" stroke-width="1" fill="none" fill-rule="evenodd">
        <g id="robot" fill="#006DF0" fill-rule="nonzero">
            <path d="M39.4130435,0 L15.9782609,0 C10.6927438,0 6.39130435,4.30143943 6.39130435,9.58695652 L6.39130435,13.4931004 L0.213251462,21.7303308 C0.0743780054,21.9149754 1.33226763e-15,22.1396697 1.33226763e-15,22.3695652 L1.33226763e-15,26.6304348 C1.33226763e-15,27.2197371 0.47747544,27.6956522 1.06521739,27.6956522 L6.39130435,27.6956522 L6.39130435,35.1521739 C6.39130435,38.0888036 8.78076165,40.4782609 11.7173913,40.4782609 L12.7826087,40.4782609 L12.7826087,46.8695652 L9.58695652,46.8695652 C8.99921457,46.8695652 8.52173913,47.3454802 8.52173913,47.9347826 C8.52173913,48.524085 8.99921457,49 9.58695652,49 L43.673913,49 C44.2632154,49 44.7391304,48.524085 44.7391304,47.9347826 C44.7391304,47.3454802 44.2632154,46.8695652 43.673913,46.8695652 L40.4782609,46.8695652 L40.4782609,36.1575768 C45.2654976,35.6260084 49,31.5570652 49,26.6304348 L49,9.58695652 C49,4.30143943 44.6996009,3.7844124e-15 39.4130435,0 Z M8.52173913,35.1521739 L8.52173913,31.9565217 L13.8478261,31.9565217 C14.435568,31.9565217 14.9130435,31.4806067 14.9130435,30.8913043 C14.9130435,30.302002 14.435568,29.826087 13.8478261,29.826087 L8.52173913,29.826087 L8.52173913,26.6304348 C8.52173913,26.0411324 8.04426369,25.5652174 7.45652174,25.5652174 L2.13043478,25.5652174 L2.13043478,22.7242909 L8.30848767,14.4870605 C8.44736113,14.3024159 8.52173913,14.0777216 8.52173913,13.8478261 L8.52173913,9.58695652 C8.52173913,5.47536306 11.8666674,2.13043478 15.9782609,2.13043478 L18.1086957,2.13043478 C22.2202891,2.13043478 25.5652174,5.47536306 25.5652174,9.58695652 L25.5652174,13.8478261 C25.5652174,14.435568 26.0411324,14.9130435 26.6304348,14.9130435 L27.8137207,14.9130435 C26.4281059,16.2679708 25.5652174,18.1534265 25.5652174,20.2391304 C25.5652174,22.3248343 26.4281059,24.21029 27.8137207,25.5652174 L26.6304348,25.5652174 C26.0411324,25.5652174 25.5652174,26.0411324 25.5652174,26.6304348 L25.5652174,30.8913043 C25.5652174,35.0018576 22.2202891,38.3478261 18.1086957,38.3478261 L11.7173913,38.3478261 C9.9557256,38.3478261 8.52173913,36.9138396 8.52173913,35.1521739 Z M38.3478261,20.2391304 C38.3478261,23.1757601 35.9583688,25.5652174 33.0217391,25.5652174 C30.0851095,25.5652174 27.6956522,23.1757601 27.6956522,20.2391304 C27.6956522,17.3025008 30.0851095,14.9130435 33.0217391,14.9130435 C35.9583688,14.9130435 38.3478261,17.3025008 38.3478261,20.2391304 Z M46.8695652,26.6304348 C46.8695652,30.7409881 43.5235968,34.0869565 39.4130435,34.0869565 C38.8237411,34.0869565 38.3478261,34.5628716 38.3478261,35.1521739 L38.3478261,46.8695652 L14.9130435,46.8695652 L14.9130435,40.4782609 L30.8913043,40.4782609 C31.4806067,40.4782609 31.9565217,40.0023458 31.9565217,39.4130435 C31.9565217,38.8237411 31.4806067,38.3478261 30.8913043,38.3478261 L24.1208284,38.3478261 C26.2980744,36.5892812 27.6956522,33.9017918 27.6956522,30.8913043 L27.6956522,27.6956522 L33.0217391,27.6956522 C37.1322924,27.6956522 40.4782609,24.3507239 40.4782609,20.2391304 C40.4782609,16.127537 37.1322924,12.7826087 33.0217391,12.7826087 L27.6956522,12.7826087 L27.6956522,9.58695652 C27.6956522,6.57646909 26.2980744,3.88897967 24.1208284,2.13043478 L39.4130435,2.13043478 C43.5235968,2.13043478 46.8695652,5.47536306 46.8695652,9.58695652 L46.8695652,26.6304348 Z" id="Shape"></path>
        </g>
    </g>
</svg>