<?xml version="1.0" encoding="UTF-8"?>
<svg width="49px" height="49px" viewBox="0 0 49 49" version="1.1" xmlns="http://www.w3.org/2000/svg" xmlns:xlink="http://www.w3.org/1999/xlink">
    <!-- Generator: Sketch 49.3 (51167) - http://www.bohemiancoding.com/sketch -->
    <title>security</title>
    <desc>Created with Sketch.</desc>
    <defs></defs>
    <g id="Page-1" stroke="none" stroke-width="1" fill="none" fill-rule="evenodd">
        <g id="security" fill="#006DF0" fill-rule="nonzero">
            <path d="M26.6304348,29.826087 L22.3695652,29.826087 C19.4329356,29.826087 17.0434783,32.2155443 17.0434783,35.1521739 L17.0434783,39.4130435 C17.0434783,40.0023458 17.5209537,40.4782609 18.1086957,40.4782609 L30.8913043,40.4782609 C31.4806067,40.4782609 31.9565217,40.0023458 31.9565217,39.4130435 L31.9565217,35.1521739 C31.9565217,32.2155443 29.5670644,29.826087 26.6304348,29.826087 Z M29.826087,38.3478261 L19.173913,38.3478261 L19.173913,35.1521739 C19.173913,33.3905082 20.6078995,31.9565217 22.3695652,31.9565217 L26.6304348,31.9565217 C28.3921005,31.9565217 29.826087,33.3905082 29.826087,35.1521739 L29.826087,38.3478261 Z" id="Shape"></path>
            <path d="M47.9347826,46.8695652 L43.6463464,46.8695652 C44.3225098,45.9770296 44.7391304,44.8774838 44.7391304,43.673913 L44.7391304,26.6304348 C44.7391304,24.0589334 42.9056874,21.9071735 40.4782609,21.4120139 L40.4782609,9.58695652 C40.4782609,4.30143943 36.1778618,0 30.8913043,0 L18.1086957,0 C12.8231786,0 8.52173913,4.30143943 8.52173913,9.58695652 L8.52173913,21.4120139 C6.09431255,21.9071735 4.26086957,24.0578932 4.26086957,26.6304348 L4.26086957,43.673913 C4.26086957,44.8774838 4.6774902,45.9770296 5.35365358,46.8695652 L1.06521739,46.8695652 C0.47747544,46.8695652 0,47.3454802 0,47.9347826 C0,48.524085 0.47747544,49 1.06521739,49 L47.9347826,49 C48.524085,49 49,48.524085 49,47.9347826 C49,47.3454802 48.524085,46.8695652 47.9347826,46.8695652 Z M18.1086957,2.13043478 L30.8913043,2.13043478 C35.0018576,2.13043478 38.3478261,5.47536306 38.3478261,9.58695652 L38.3478261,21.3043478 L34.0869565,21.3043478 L34.0869565,11.7173913 C34.0869565,8.78076165 31.6974992,6.39130435 28.7608696,6.39130435 L20.2391304,6.39130435 C17.3025008,6.39130435 14.9130435,8.78076165 14.9130435,11.7173913 L14.9130435,21.3043478 L10.6521739,21.3043478 L10.6521739,9.58695652 C10.6521739,5.47536306 13.9971022,2.13043478 18.1086957,2.13043478 Z M17.0434783,21.3043478 L17.0434783,11.7173913 C17.0434783,9.9557256 18.4774647,8.52173913 20.2391304,8.52173913 L28.7608696,8.52173913 C30.5225353,8.52173913 31.9565217,9.9557256 31.9565217,11.7173913 L31.9565217,21.3043478 L17.0434783,21.3043478 Z M9.58695652,46.8695652 C7.82529081,46.8695652 6.39130435,45.4355788 6.39130435,43.673913 L6.39130435,26.6304348 C6.39130435,24.8687691 7.82529081,23.4347826 9.58695652,23.4347826 L39.4130435,23.4347826 C41.1747092,23.4347826 42.6086957,24.8687691 42.6086957,26.6304348 L42.6086957,43.673913 C42.6086957,45.4355788 41.1747092,46.8695652 39.4130435,46.8695652 L9.58695652,46.8695652 Z" id="Shape"></path>
        </g>
    </g>
</svg>